<svg width="122" height="40" viewBox="0 0 122 40" fill="none" xmlns="http://www.w3.org/2000/svg">
<path d="M7.56295 16.0645L4.46338 30.8185H0L3.09957 16.0645H7.56295Z" fill="black"/>
<path d="M11.1584 19.5361C11.4064 18.2962 11.6543 16.9324 11.7783 16.0646H16.1177C15.9937 16.9324 15.8698 17.6763 15.7458 18.5442C17.4815 16.4365 19.9612 15.4446 22.6888 15.4446C25.2924 15.4446 29.1359 16.9324 28.1441 21.6438L26.1603 30.6945H21.6969L23.4327 22.8836C24.1766 19.2881 22.6888 18.4202 20.5811 18.4202C17.6055 18.5442 15.2498 20.7759 14.8779 23.6275L13.3901 30.6945H8.80273L11.1584 19.5361Z" fill="black"/>
<path d="M32.9794 19.5361C33.2274 18.2962 33.4753 16.9324 33.5993 16.0646H37.9387C37.8147 16.9324 37.6908 17.6763 37.5668 18.5442C39.3025 16.4365 41.7822 15.4446 44.3858 15.4446C46.9895 15.4446 50.8329 16.9324 49.8411 21.6438L47.8574 30.6945H43.394L45.0057 22.8836C45.7496 19.2881 44.2619 18.4202 42.1541 18.4202C39.1786 18.5442 36.8229 20.7759 36.4509 23.6275L34.9631 30.6945H30.4998L32.9794 19.5361Z" fill="black"/>
<path d="M72.158 23.3795C71.2902 27.471 68.3146 31.3144 60.8756 31.3144C53.4366 31.3144 52.0728 27.471 52.9407 23.3795C53.8086 19.2881 56.7842 15.4446 64.2231 15.4446C71.6621 15.4446 73.0259 19.2881 72.158 23.3795ZM57.5281 23.3795C56.9082 26.2311 58.024 28.4628 61.3715 28.4628C64.3471 28.5868 66.9508 26.3551 67.4467 23.3795C68.0666 20.5279 66.9508 18.2962 63.6032 18.2962C60.6276 18.1723 58.024 20.404 57.5281 23.3795Z" fill="black"/>
<path d="M79.969 16.0645L83.0686 27.4709L91.1275 16.0645H95.8388L84.9283 30.8185H79.3491L74.7617 16.0645H79.969Z" fill="black"/>
<path d="M112.328 27.9669C112.08 28.9588 111.956 29.7027 111.832 30.8185H107.741C107.865 30.0746 107.865 29.4547 108.113 28.8348C106.005 30.5705 103.278 31.5624 100.55 31.4384C95.3427 31.4384 94.1029 29.0828 94.5988 26.8511C95.5907 22.2637 100.178 21.3958 105.757 21.3958H109.353C109.849 18.7922 108.237 18.0483 106.005 18.0483C103.774 18.0483 102.41 18.9162 101.914 20.156H97.3264C98.5663 16.3125 102.906 15.4446 106.625 15.4446C110.717 15.4446 114.808 16.5605 113.692 21.7678L112.328 27.9669ZM105.013 23.9995C101.666 23.9995 99.5581 24.7434 99.1862 26.4791C98.9382 27.471 99.5581 28.8348 102.038 28.8348C104.269 28.8348 107.865 27.595 108.609 23.9995H105.013Z" fill="black"/>
<path d="M6.32324 14.3784C7.96662 14.3784 9.29883 12.9907 9.29883 11.2788C9.29883 9.56699 7.96662 8.17926 6.32324 8.17926C4.67987 8.17926 3.34766 9.56699 3.34766 11.2788C3.34766 12.9907 4.67987 14.3784 6.32324 14.3784Z" fill="black"/>
<path d="M52.9742 29.1918C47.8909 33.9032 47.8909 33.9032 47.8909 33.9032L54.338 30.4317C53.842 30.0597 53.3461 29.6878 52.9742 29.1918Z" fill="#0070CD"/>
<path d="M66.2007 9.94473C66.4486 11.6805 66.2007 13.4163 65.4568 14.904C68.5563 15.028 70.5401 15.8959 71.6559 17.1357C77.2351 11.9285 80.9546 6.72118 78.7229 3.24966C76.8632 0.274071 70.788 -0.717791 63.3491 0.522037C60.4975 1.01797 57.7698 1.5139 55.2902 2.00983C49.215 3.49763 43.2638 5.23339 37.8086 7.09313C46.2394 5.23339 64.3409 2.13381 66.2007 9.94473Z" fill="#0070CD"/>
<path d="M51.598 38.5017C51.722 38.8736 51.97 39.1216 52.7139 39.1216C53.4578 39.1216 53.5817 38.8736 53.5817 38.6257C53.5817 38.3777 53.3338 38.1297 52.4659 38.0057C50.9781 37.7578 50.6062 37.2618 50.6062 36.7659C50.6062 35.898 51.474 35.4021 52.5899 35.4021C54.0777 35.4021 54.4496 36.146 54.5736 36.6419H53.4578C53.4578 36.394 53.2098 36.146 52.5899 36.146C51.97 36.146 51.722 36.27 51.722 36.6419C51.722 36.8899 51.846 37.0139 52.7139 37.1379C54.3256 37.3858 54.6976 37.8818 54.6976 38.6257C54.6976 39.3695 54.0777 39.9895 52.5899 39.9895C51.2261 39.9895 50.6062 39.3695 50.4822 38.5017H51.598Z" fill="#0070CD"/>
<path d="M62.6325 37.6338C62.6325 38.8736 61.7646 39.8655 60.5248 39.9895C60.4008 39.9895 60.4008 39.9895 60.2768 39.9895C59.037 39.9895 58.0451 39.1216 57.9211 37.8817C57.9211 37.8817 57.9211 37.7578 57.9211 37.6338C57.9211 36.3939 58.913 35.4021 60.1528 35.4021H60.2768C61.5166 35.2781 62.5085 36.27 62.6325 37.5098V37.6338ZM59.037 37.6338C59.037 38.5017 59.4089 39.1216 60.2768 39.1216C61.1447 39.1216 61.5166 38.3777 61.5166 37.6338C61.5166 36.8899 61.1447 36.146 60.2768 36.146C59.4089 36.27 59.037 36.8899 59.037 37.6338Z" fill="#0070CD"/>
<path d="M66.228 35.5261H67.3439V38.9976H69.8235L69.6995 39.8655H66.352V35.5261H66.228Z" fill="#0070CD"/>
<path d="M73.9149 35.5261V38.0057C73.9149 38.8736 74.4109 39.1216 74.9068 39.1216C75.5267 39.1216 75.8986 38.8736 75.8986 38.0057V35.5261H77.0145V38.0057C77.1385 38.9976 76.3946 39.8655 75.4027 39.9894C75.2787 39.9894 75.1547 39.9894 74.9068 39.9894C73.667 39.9894 72.7991 39.3695 72.7991 38.0057V35.5261H73.9149Z" fill="#0070CD"/>
<path d="M81.7258 36.3939H80.238V35.5261H84.3295V36.3939H82.8417V39.8655H81.7258V36.3939Z" fill="#0070CD"/>
<path d="M88.7928 35.5261V39.8655H87.677V35.5261H88.7928Z" fill="#0070CD"/>
<path d="M96.9758 37.6338C96.9758 38.8736 96.1079 39.8654 94.868 39.9894C94.7441 39.9894 94.7441 39.9894 94.6201 39.9894C93.3802 40.1134 92.3884 39.1216 92.2644 38.0057C92.2644 37.8817 92.2644 37.8817 92.2644 37.7577C92.2644 36.5179 93.2563 35.526 94.4961 35.526H94.6201C95.8599 35.4021 96.8518 36.3939 96.9758 37.6338ZM93.3802 37.6338C93.3802 38.5016 93.7522 39.1216 94.6201 39.1216C95.488 39.1216 95.8599 38.3777 95.8599 37.6338C95.8599 36.8899 95.488 36.146 94.6201 36.146C93.7522 36.2699 93.3802 36.8899 93.3802 37.6338Z" fill="#0070CD"/>
<path d="M100.571 39.8655V35.5261H101.811C103.051 37.3858 103.547 38.1297 103.795 38.6256C103.795 38.1297 103.795 37.3858 103.795 36.6419V35.5261H104.787V39.8655H103.547C103.175 39.2455 101.687 37.0139 101.439 36.5179C101.439 37.0139 101.439 37.6338 101.439 38.5017V39.8655H100.571Z" fill="#0070CD"/>
<path d="M109.126 38.5017C109.25 38.8736 109.622 39.1216 110.366 39.1216C110.986 39.1216 111.234 38.9976 111.234 38.6257C111.234 38.3777 110.986 38.1297 110.118 38.0058C108.63 37.7578 108.382 37.2619 108.382 36.6419C108.382 35.7741 109.25 35.2781 110.242 35.2781C111.73 35.2781 112.102 36.022 112.226 36.518H111.11C111.11 36.27 110.862 36.022 110.242 36.022C109.746 36.022 109.498 36.146 109.498 36.518C109.498 36.7659 109.622 36.8899 110.49 37.0139C112.102 37.2619 112.474 37.7578 112.474 38.5017C112.474 39.2456 111.854 39.8655 110.366 39.8655C109.002 39.8655 108.382 39.2456 108.258 38.5017H109.126Z" fill="#0070CD"/>
<path d="M116.897 28.9588H115.905V28.4628H118.509V28.9588H117.517V31.3144H116.897V28.9588ZM118.757 28.4628H119.749L120.369 30.5705L120.989 28.4628H121.98V31.3144H121.361V28.8348L120.617 31.3144H120.121L119.377 28.8348V31.3144H118.757V28.4628Z" fill="black"/>
</svg>
