<svg width="20" height="20" viewBox="0 0 20 20" fill="none" xmlns="http://www.w3.org/2000/svg">
<rect x="1.8186" y="7.99994" width="16.3629" height="12.0001" fill="black"/>
<path d="M7.2253 11.0338C7.2253 10.7833 7.01748 10.5803 6.76105 10.5803H5.141C4.88487 10.5803 4.677 10.7833 4.677 11.0338V12.6178C4.677 12.8686 4.88487 13.0717 5.141 13.0717H6.76105C7.01748 13.0717 7.2253 12.8686 7.2253 12.6178V11.0338Z" fill="white"/>
<path d="M11.2741 11.0338C11.2741 10.7833 11.0662 10.5803 10.8103 10.5803H9.19007C8.93394 10.5803 8.72607 10.7833 8.72607 11.0338V12.6178C8.72607 12.8686 8.93394 13.0717 9.19007 13.0717H10.8103C11.0662 13.0717 11.2741 12.8686 11.2741 12.6178V11.0338Z" fill="white"/>
<path d="M15.323 11.0338C15.323 10.7833 15.1151 10.5803 14.859 10.5803H13.2389C12.9825 10.5803 12.7747 10.7833 12.7747 11.0338V12.6178C12.7747 12.8686 12.9825 13.0717 13.2389 13.0717H14.859C15.1151 13.0717 15.323 12.8686 15.323 12.6178V11.0338Z" fill="white"/>
<path d="M7.2253 14.9932C7.2253 14.7422 7.01748 14.5394 6.76105 14.5394H5.141C4.88487 14.5394 4.677 14.7422 4.677 14.9932V16.5768C4.677 16.8275 4.88487 17.0305 5.141 17.0305H6.76105C7.01748 17.0305 7.2253 16.8275 7.2253 16.5768V14.9932Z" fill="white"/>
<path d="M11.2741 14.9932C11.2741 14.7422 11.0662 14.5394 10.8103 14.5394H9.19007C8.93394 14.5394 8.72607 14.7422 8.72607 14.9932V16.5768C8.72607 16.8275 8.93394 17.0305 9.19007 17.0305H10.8103C11.0662 17.0305 11.2741 16.8275 11.2741 16.5768V14.9932Z" fill="white"/>
<path d="M15.323 14.9932C15.323 14.7422 15.1151 14.5394 14.8592 14.5394H13.2389C12.9825 14.5394 12.7747 14.7422 12.7747 14.9932V16.5768C12.7747 16.8275 12.9825 17.0305 13.2389 17.0305H14.8592C15.1151 17.0305 15.323 16.8275 15.323 16.5768V14.9932Z" fill="white"/>
<path d="M18.2198 2.22695V4.64627C18.2198 5.73978 17.3126 6.62097 16.1945 6.62097H14.9168C13.7986 6.62097 12.8793 5.73978 12.8793 4.64627V2.21826H7.12065V4.64627C7.12065 5.73978 6.20145 6.62097 5.0834 6.62097H3.8055C2.68741 6.62097 1.78024 5.73978 1.78024 4.64627V2.22695C0.803008 2.25575 0 3.04644 0 4.01831V18.1967C0 19.1868 0.820732 20 1.83332 20H18.1667C19.1778 20 20 19.1851 20 18.1967V4.01831C20 3.04644 19.197 2.25575 18.2198 2.22695ZM17.6264 17.3138C17.6264 17.7417 17.2716 18.0888 16.8338 18.0888H3.13129C2.69352 18.0888 2.33872 17.7417 2.33872 17.3138V9.99012C2.33872 9.56206 2.69348 9.21491 3.13129 9.21491H16.8338C17.2715 9.21491 17.6263 9.56206 17.6263 9.99012L17.6264 17.3138Z" fill="black"/>
<path d="M3.80106 5.32394H5.06484C5.44843 5.32394 5.75945 5.02026 5.75945 4.64518V0.679007C5.75945 0.30388 5.44843 0 5.06484 0H3.80106C3.41742 0 3.10645 0.30388 3.10645 0.679007V4.64518C3.10645 5.02026 3.41742 5.32394 3.80106 5.32394Z" fill="black"/>
<path d="M14.9006 5.32394H16.1644C16.5477 5.32394 16.8588 5.02026 16.8588 4.64518V0.679007C16.8588 0.30388 16.5478 0 16.1644 0H14.9006C14.5171 0 14.2061 0.30388 14.2061 0.679007V4.64518C14.2061 5.02026 14.5171 5.32394 14.9006 5.32394Z" fill="black"/>
</svg>
