<svg width="54" height="54" viewBox="0 0 54 54" fill="none" xmlns="http://www.w3.org/2000/svg">
<path d="M38.3379 42.2057L35.2495 39.1173L35.8135 38.5533L39.101 39.1535L39.1236 39.1309L37.1798 37.187L37.8327 36.5341L40.9211 39.6225L40.3481 40.1955L37.0727 39.5863L37.0455 39.6134L38.9879 41.5557L38.3379 42.2057Z" fill="black"/>
<path d="M14.2794 36.4379L17.3678 39.5263L15.2867 41.6073L14.7484 41.069L16.1764 39.6409L15.4405 38.905L14.1195 40.226L13.5812 39.6876L14.9022 38.3666L14.1648 37.6292L12.7306 39.0633L12.1923 38.525L14.2794 36.4379Z" fill="black"/>
<path d="M37.8869 12.8306L41.859 15.0353L41.1457 15.7486L38.4886 14.1139L38.463 14.1395L40.0449 16.8494L39.4341 17.4602L36.7212 15.8722L36.6941 15.8994L38.3333 18.561L37.62 19.2743L35.4153 15.3022L36.0517 14.6658L38.659 16.0969L38.6831 16.0728L37.2505 13.467L37.8869 12.8306Z" fill="black"/>
<path d="M14.3647 16.8739C14.4984 16.9835 14.6447 17.0262 14.8035 17.0021C14.9624 16.9779 15.1202 16.8875 15.2771 16.7306C15.3836 16.6241 15.4585 16.519 15.5018 16.4154C15.546 16.3129 15.5616 16.2159 15.5485 16.1244C15.5344 16.0339 15.4942 15.9555 15.4279 15.8892C15.3746 15.8318 15.3148 15.7952 15.2484 15.7791C15.181 15.764 15.1097 15.764 15.0343 15.7791C14.9599 15.7952 14.882 15.8218 14.8005 15.859C14.7201 15.8972 14.6387 15.9424 14.5562 15.9947L14.2124 16.2058C14.0475 16.3104 13.8837 16.3938 13.7208 16.4562C13.5579 16.5185 13.3986 16.5542 13.2428 16.5632C13.0869 16.5723 12.9366 16.5497 12.7919 16.4954C12.6461 16.4421 12.5084 16.3516 12.3787 16.2239C12.1907 16.0339 12.0751 15.8218 12.0318 15.5876C11.9886 15.3553 12.0183 15.1115 12.1208 14.8562C12.2233 14.6028 12.4003 14.3505 12.6516 14.0991C12.9009 13.8498 13.1563 13.6709 13.4177 13.5623C13.6781 13.4547 13.9349 13.4241 14.1883 13.4703C14.4416 13.5186 14.6819 13.6513 14.9091 13.8684L14.2773 14.5003C14.1667 14.4038 14.0505 14.347 13.9289 14.3299C13.8073 14.3148 13.6846 14.3339 13.5609 14.3872C13.4373 14.4425 13.3192 14.5264 13.2066 14.639C13.096 14.7496 13.0161 14.8617 12.9668 14.9753C12.9165 15.0899 12.8974 15.1985 12.9095 15.301C12.9216 15.4036 12.9648 15.492 13.0392 15.5664C13.1085 15.6358 13.1875 15.6735 13.2759 15.6795C13.3634 15.6866 13.4629 15.6675 13.5745 15.6222C13.6851 15.578 13.8103 15.5132 13.95 15.4277L14.3707 15.1759C14.6945 14.9788 14.9991 14.8723 15.2846 14.8562C15.5701 14.8401 15.8265 14.9466 16.0537 15.1759C16.2417 15.3619 16.3553 15.575 16.3945 15.8153C16.4327 16.0565 16.4025 16.3049 16.304 16.5602C16.2055 16.8156 16.0436 17.0558 15.8184 17.281C15.5892 17.5103 15.3499 17.6711 15.1006 17.7636C14.8503 17.8571 14.6075 17.8817 14.3723 17.8375C14.137 17.7933 13.9259 17.6807 13.7389 17.4997L14.3647 16.8739Z" fill="black"/>
<path d="M17.4019 18.6889L35.3687 36.6556" stroke="black" stroke-width="0.75069"/>
<path d="M17.2285 36.8865L35.541 18.574" stroke="black" stroke-width="0.75069"/>
</svg>
