<svg width="18" height="16" viewBox="0 0 18 16" fill="none" xmlns="http://www.w3.org/2000/svg">
<path d="M6.91675 10.9167L12.7501 7.16667L6.91675 3.41667V10.9167ZM5.66675 15.5V13.8333H2.33341C1.87508 13.8333 1.48272 13.6701 1.15633 13.3438C0.829942 13.0174 0.666748 12.625 0.666748 12.1667V2.16667C0.666748 1.70833 0.829942 1.31597 1.15633 0.989583C1.48272 0.663194 1.87508 0.5 2.33341 0.5H15.6667C16.1251 0.5 16.5174 0.663194 16.8438 0.989583C17.1702 1.31597 17.3334 1.70833 17.3334 2.16667V12.1667C17.3334 12.625 17.1702 13.0174 16.8438 13.3438C16.5174 13.6701 16.1251 13.8333 15.6667 13.8333H12.3334V15.5H5.66675ZM2.33341 12.1667H15.6667V2.16667H2.33341V12.1667Z" fill="white"/>
</svg>
